<svg width="398" height="398" viewBox="0 0 398 398" fill="none" xmlns="http://www.w3.org/2000/svg">
<g clip-path="url(#clip0_141_77)">
<rect width="398" height="398" rx="8" fill="white"/>
<path d="M69.5398 97V56.2727H96.983V63.3722H78.1506V73.0767H95.571V80.1761H78.1506V89.9006H97.0625V97H69.5398ZM103.67 97V66.4545H111.744V71.8438H112.102C112.738 70.054 113.799 68.642 115.283 67.608C116.768 66.5739 118.545 66.0568 120.613 66.0568C122.708 66.0568 124.491 66.5805 125.962 67.6278C127.434 68.6619 128.415 70.0672 128.906 71.8438H129.224C129.847 70.0938 130.974 68.6951 132.604 67.6477C134.248 66.5871 136.191 66.0568 138.431 66.0568C141.281 66.0568 143.595 66.965 145.371 68.7812C147.161 70.5843 148.056 73.143 148.056 76.4574V97H139.604V78.1278C139.604 76.4309 139.154 75.1581 138.252 74.3097C137.351 73.4612 136.224 73.0369 134.871 73.0369C133.334 73.0369 132.134 73.5275 131.272 74.5085C130.41 75.4763 129.979 76.7557 129.979 78.3466V97H121.766V77.9489C121.766 76.4508 121.335 75.2576 120.474 74.3693C119.625 73.4811 118.505 73.0369 117.113 73.0369C116.172 73.0369 115.323 73.2756 114.567 73.7528C113.825 74.2169 113.235 74.8731 112.798 75.7216C112.36 76.5568 112.141 77.5379 112.141 78.6648V97H103.67ZM168.549 97.5966C165.46 97.5966 162.789 96.9403 160.535 95.6278C158.294 94.3021 156.564 92.4593 155.344 90.0994C154.125 87.7263 153.515 84.9754 153.515 81.8466C153.515 78.6913 154.125 75.9337 155.344 73.5739C156.564 71.2008 158.294 69.358 160.535 68.0455C162.789 66.7197 165.46 66.0568 168.549 66.0568C171.638 66.0568 174.303 66.7197 176.543 68.0455C178.797 69.358 180.534 71.2008 181.754 73.5739C182.973 75.9337 183.583 78.6913 183.583 81.8466C183.583 84.9754 182.973 87.7263 181.754 90.0994C180.534 92.4593 178.797 94.3021 176.543 95.6278C174.303 96.9403 171.638 97.5966 168.549 97.5966ZM168.589 91.0341C169.994 91.0341 171.167 90.6364 172.109 89.8409C173.05 89.0322 173.759 87.9318 174.237 86.5398C174.727 85.1477 174.972 83.5634 174.972 81.7869C174.972 80.0104 174.727 78.4261 174.237 77.0341C173.759 75.642 173.05 74.5417 172.109 73.733C171.167 72.9242 169.994 72.5199 168.589 72.5199C167.17 72.5199 165.977 72.9242 165.009 73.733C164.055 74.5417 163.332 75.642 162.842 77.0341C162.364 78.4261 162.126 80.0104 162.126 81.7869C162.126 83.5634 162.364 85.1477 162.842 86.5398C163.332 87.9318 164.055 89.0322 165.009 89.8409C165.977 90.6364 167.17 91.0341 168.589 91.0341ZM203.688 97H189.251V56.2727H203.808C207.904 56.2727 211.431 57.0881 214.387 58.7188C217.344 60.3362 219.617 62.6629 221.208 65.6989C222.812 68.7348 223.614 72.3674 223.614 76.5966C223.614 80.839 222.812 84.4848 221.208 87.5341C219.617 90.5833 217.33 92.9233 214.347 94.554C211.378 96.1847 207.825 97 203.688 97ZM197.862 89.6222H203.33C205.876 89.6222 208.017 89.1714 209.754 88.2699C211.504 87.3551 212.816 85.9432 213.691 84.0341C214.579 82.1117 215.023 79.6326 215.023 76.5966C215.023 73.5871 214.579 71.1278 213.691 69.2188C212.816 67.3097 211.51 65.9044 209.773 65.0028C208.037 64.1013 205.896 63.6506 203.35 63.6506H197.862V89.6222ZM229.834 97V66.4545H238.305V97H229.834ZM234.089 62.517C232.83 62.517 231.75 62.0994 230.848 61.2642C229.96 60.4157 229.516 59.4015 229.516 58.2216C229.516 57.0549 229.96 56.054 230.848 55.2188C231.75 54.3703 232.83 53.946 234.089 53.946C235.349 53.946 236.423 54.3703 237.311 55.2188C238.213 56.054 238.663 57.0549 238.663 58.2216C238.663 59.4015 238.213 60.4157 237.311 61.2642C236.423 62.0994 235.349 62.517 234.089 62.517ZM253.802 97.5767C251.853 97.5767 250.116 97.2386 248.592 96.5625C247.067 95.8731 245.861 94.8589 244.972 93.5199C244.097 92.1676 243.66 90.4839 243.66 88.4688C243.66 86.7718 243.971 85.3466 244.594 84.1932C245.218 83.0398 246.066 82.1117 247.14 81.4091C248.214 80.7064 249.433 80.1761 250.799 79.8182C252.178 79.4602 253.623 79.2083 255.134 79.0625C256.911 78.8769 258.343 78.7045 259.43 78.5455C260.517 78.3731 261.306 78.1212 261.796 77.7898C262.287 77.4583 262.532 76.9678 262.532 76.3182V76.1989C262.532 74.9394 262.134 73.965 261.339 73.2756C260.557 72.5862 259.443 72.2415 257.998 72.2415C256.473 72.2415 255.26 72.5795 254.359 73.2557C253.457 73.9186 252.861 74.7538 252.569 75.7614L244.734 75.125C245.131 73.2689 245.914 71.6648 247.08 70.3125C248.247 68.947 249.752 67.8996 251.594 67.1705C253.451 66.428 255.598 66.0568 258.038 66.0568C259.735 66.0568 261.359 66.2557 262.91 66.6534C264.474 67.0511 265.86 67.6676 267.066 68.5028C268.286 69.3381 269.247 70.4119 269.95 71.7244C270.652 73.0237 271.004 74.5814 271.004 76.3977V97H262.969V92.7642H262.731C262.24 93.7188 261.584 94.5606 260.762 95.2898C259.94 96.0057 258.952 96.5691 257.799 96.9801C256.646 97.3778 255.313 97.5767 253.802 97.5767ZM256.228 91.7301C257.474 91.7301 258.575 91.4848 259.529 90.9943C260.484 90.4905 261.233 89.8144 261.776 88.9659C262.32 88.1174 262.592 87.1562 262.592 86.0824V82.8409C262.326 83.0133 261.962 83.1723 261.498 83.3182C261.047 83.4508 260.537 83.5767 259.967 83.696C259.397 83.8021 258.826 83.9015 258.256 83.9943C257.686 84.0739 257.169 84.1468 256.705 84.2131C255.711 84.3589 254.843 84.5909 254.1 84.9091C253.358 85.2273 252.781 85.6581 252.37 86.2017C251.959 86.732 251.754 87.3949 251.754 88.1903C251.754 89.3438 252.171 90.2254 253.006 90.8352C253.855 91.4318 254.929 91.7301 256.228 91.7301ZM277.576 97V66.4545H285.789V71.7841H286.107C286.664 69.8883 287.599 68.4564 288.911 67.4886C290.224 66.5076 291.735 66.017 293.445 66.017C293.87 66.017 294.327 66.0436 294.817 66.0966C295.308 66.1496 295.739 66.2225 296.11 66.3153V73.8324C295.712 73.7131 295.162 73.607 294.46 73.5142C293.757 73.4214 293.114 73.375 292.531 73.375C291.284 73.375 290.171 73.6468 289.19 74.1903C288.222 74.7206 287.453 75.4631 286.883 76.4176C286.326 77.3722 286.048 78.4725 286.048 79.7188V97H277.576ZM306.65 108.455C305.576 108.455 304.568 108.368 303.627 108.196C302.699 108.037 301.93 107.831 301.32 107.58L303.229 101.256C304.224 101.561 305.119 101.726 305.914 101.753C306.723 101.779 307.419 101.594 308.002 101.196C308.599 100.798 309.083 100.122 309.454 99.1676L309.951 97.875L298.994 66.4545H307.903L314.227 88.8864H314.545L320.928 66.4545H329.897L318.025 100.301C317.455 101.945 316.679 103.377 315.698 104.597C314.73 105.83 313.504 106.777 312.019 107.44C310.534 108.116 308.745 108.455 306.65 108.455Z" fill="#575CE5"/>
<path d="M114.4 353.303C100.218 349.613 87.6871 341.271 78.8144 329.614C69.9417 317.956 65.2415 303.658 65.4672 289.012C65.5235 285.363 65.9073 281.637 67.4419 278.326C68.9765 275.014 71.827 272.15 75.3926 271.365C79.284 270.509 83.3903 272.259 86.2903 274.991C89.1902 277.722 91.0917 281.326 92.8412 284.905C103.378 306.459 111.384 329.587 114.382 353.39L114.4 353.303Z" fill="#F2F2F2"/>
<path d="M31.6142 272.084L38.9994 288.857L46.3845 305.63C48.7234 310.943 51.0578 316.257 53.4753 321.534C55.8716 326.764 58.35 331.959 60.9939 337.069C63.6341 342.173 66.4401 347.193 69.4859 352.066C69.8652 352.673 70.2483 353.277 70.635 353.88C70.9027 354.297 71.5717 353.91 71.3022 353.49C68.1979 348.653 65.3376 343.663 62.6548 338.581C59.9692 333.494 57.4591 328.316 55.0417 323.096C52.6114 317.849 50.2745 312.559 47.9439 307.267C45.4907 301.697 43.0379 296.126 40.5856 290.555L33.2004 273.782L32.2814 271.695C32.0815 271.241 31.4156 271.633 31.6142 272.084V272.084Z" fill="#FBFDFF"/>
<path d="M111.319 353.419C102.96 355.331 94.2009 354.381 86.4461 350.723C78.6912 347.065 72.3895 340.91 68.5512 333.245C67.5949 331.336 66.788 329.298 66.6904 327.164C66.5928 325.031 67.2992 322.775 68.9385 321.405C70.7275 319.91 73.3322 319.711 75.5755 320.347C77.8188 320.982 79.7793 322.34 81.654 323.726C92.946 332.073 103.349 341.92 111.333 353.469L111.319 353.419Z" fill="#F2F2F2"/>
<path d="M26.2031 322.255L34.5672 328.97L42.9313 335.686C45.5803 337.812 48.2275 339.942 50.9078 342.029C53.5645 344.098 56.2541 346.126 59.007 348.066C61.756 350.003 64.5686 351.852 67.466 353.56C67.8268 353.773 68.1889 353.983 68.5524 354.191C68.804 354.336 69.0468 353.954 68.7935 353.809C65.8755 352.135 63.043 350.317 60.2777 348.402C57.5094 346.486 54.8077 344.475 52.143 342.417C49.4641 340.349 46.8222 338.233 44.183 336.114C41.4049 333.884 38.6269 331.654 35.8492 329.423L27.4851 322.708L26.4442 321.872C26.2178 321.691 25.9781 322.074 26.2031 322.255Z" fill="#FBFDFF"/>
<path d="M289.215 352.883C308.991 347.738 326.467 336.104 338.84 319.847C351.214 303.59 357.768 283.651 357.453 263.227C357.375 258.138 356.84 252.942 354.7 248.324C352.56 243.706 348.584 239.712 343.612 238.618C338.185 237.423 332.459 239.864 328.415 243.674C324.371 247.483 321.719 252.508 319.279 257.499C304.585 287.557 293.42 319.81 289.24 353.004L289.215 352.883Z" fill="#F2F2F2"/>
<path d="M346.074 239.62L335.775 263.011L325.476 286.402C322.214 293.81 318.959 301.221 315.588 308.58C312.246 315.874 308.79 323.118 305.103 330.245C301.421 337.361 297.508 344.362 293.26 351.158C292.731 352.004 292.197 352.847 291.658 353.687C291.285 354.269 290.352 353.729 290.727 353.143C295.056 346.398 299.045 339.44 302.787 332.353C306.532 325.259 310.032 318.037 313.403 310.759C316.792 303.441 320.051 296.064 323.301 288.684C326.723 280.916 330.143 273.147 333.563 265.378L343.862 241.988L345.144 239.077C345.422 238.444 346.351 238.991 346.074 239.62V239.62Z" fill="#FBFDFF"/>
<path d="M293.511 353.045C305.168 355.711 317.383 354.387 328.198 349.286C339.012 344.184 347.8 335.601 353.153 324.912C354.486 322.249 355.612 319.407 355.748 316.432C355.884 313.457 354.899 310.31 352.613 308.4C350.118 306.316 346.486 306.038 343.357 306.924C340.229 307.81 337.495 309.704 334.88 311.637C319.133 323.277 304.626 337.009 293.491 353.115L293.511 353.045Z" fill="#F2F2F2"/>
<path d="M353.62 309.585L341.956 318.95L330.292 328.315C326.598 331.281 322.906 334.25 319.168 337.161C315.463 340.046 311.713 342.874 307.874 345.579C304.04 348.281 300.118 350.859 296.077 353.241C295.574 353.538 295.069 353.832 294.562 354.122C294.211 354.323 293.873 353.791 294.226 353.589C298.295 351.255 302.245 348.719 306.102 346.049C309.962 343.376 313.73 340.572 317.446 337.703C321.182 334.818 324.866 331.867 328.546 328.913C332.421 325.803 336.294 322.693 340.168 319.582L351.832 310.217L353.284 309.052C353.599 308.798 353.934 309.333 353.62 309.585V309.585Z" fill="#FBFDFF"/>
<path d="M308.99 228.59C307.125 215.841 303.004 203.527 296.819 192.223C286.876 174.049 271.997 159.054 253.898 148.966C235.798 138.879 215.216 134.109 194.522 135.209C173.829 136.308 153.868 143.23 136.94 155.179C120.012 167.127 106.807 183.614 98.8469 202.739V202.743C96.433 208.566 94.5325 214.587 93.1671 220.74C91.4168 228.63 90.5364 236.688 90.5418 244.769C90.5418 273.882 102.111 301.802 122.705 322.388C143.299 342.974 171.23 354.539 200.354 354.539C229.478 354.539 257.41 342.974 278.003 322.388C298.597 301.802 310.167 273.882 310.167 244.769C310.169 239.355 309.775 233.947 308.99 228.59V228.59ZM200.354 353.616C140.313 353.616 91.4646 304.787 91.4646 244.769C91.4473 229.831 94.5248 215.051 100.503 201.36C117.307 162.881 155.742 135.922 200.354 135.922C241.396 135.922 277.205 158.739 295.757 192.348C301.947 203.544 306.098 215.749 308.017 228.396C308.835 233.816 309.245 239.289 309.244 244.769C309.244 304.787 260.396 353.616 200.354 353.616Z" fill="#2F313E"/>
<path d="M164.711 233.7C159.369 233.699 154.192 231.844 150.065 228.452C145.938 225.06 143.117 220.341 142.084 215.101C141.051 209.861 141.87 204.425 144.401 199.722C146.932 195.018 151.017 191.338 155.961 189.311C160.904 187.284 166.397 187.035 171.504 188.607C176.61 190.179 181.012 193.474 183.958 197.93C186.904 202.385 188.211 207.725 187.657 213.037C187.102 218.349 184.72 223.303 180.917 227.055C176.607 231.325 170.78 233.715 164.711 233.7ZM164.711 188.501C160.331 188.501 156.048 189.799 152.406 192.232C148.763 194.664 145.924 198.122 144.247 202.168C142.571 206.213 142.132 210.665 142.987 214.96C143.841 219.255 145.951 223.2 149.048 226.296C152.146 229.393 156.093 231.501 160.389 232.356C164.686 233.21 169.139 232.771 173.186 231.095C177.234 229.419 180.693 226.581 183.126 222.94C185.56 219.299 186.859 215.018 186.858 210.639C186.852 204.77 184.516 199.143 180.364 194.993C176.212 190.842 170.583 188.508 164.711 188.501Z" fill="#2F313E"/>
<path d="M235.767 233.7C231.204 233.7 226.743 232.348 222.95 229.814C219.156 227.28 216.199 223.678 214.453 219.464C212.707 215.25 212.25 210.614 213.14 206.14C214.03 201.667 216.227 197.558 219.454 194.333C222.68 191.108 226.791 188.911 231.266 188.022C235.741 187.132 240.38 187.588 244.595 189.334C248.811 191.079 252.414 194.035 254.948 197.827C257.483 201.62 258.836 206.078 258.836 210.639C258.83 216.753 256.397 222.615 252.072 226.938C247.747 231.261 241.883 233.693 235.767 233.7V233.7ZM235.767 188.501C231.386 188.501 227.104 189.799 223.462 192.232C219.82 194.665 216.982 198.122 215.305 202.167C213.629 206.213 213.191 210.664 214.045 214.958C214.9 219.253 217.009 223.197 220.106 226.293C223.204 229.39 227.15 231.498 231.446 232.352C235.742 233.206 240.195 232.768 244.242 231.092C248.289 229.417 251.748 226.579 254.181 222.939C256.615 219.298 257.914 215.018 257.914 210.639C257.907 204.77 255.572 199.143 251.42 194.992C247.268 190.842 241.638 188.508 235.767 188.501V188.501Z" fill="#2F313E"/>
<path d="M185.474 248.459C185.474 245.912 193.737 243.847 203.93 243.847C214.123 243.847 222.386 245.912 222.386 248.459C222.386 251.006 214.123 260.451 203.93 260.451C193.737 260.451 185.474 251.006 185.474 248.459Z" fill="#2F313E"/>
<path d="M142.334 247.767C146.666 247.767 150.177 244.257 150.177 239.927C150.177 235.596 146.666 232.086 142.334 232.086C138.002 232.086 134.49 235.596 134.49 239.927C134.49 244.257 138.002 247.767 142.334 247.767Z" fill="#EA5E76"/>
<path d="M258.375 247.998C262.707 247.998 266.219 244.487 266.219 240.157C266.219 235.827 262.707 232.317 258.375 232.317C254.043 232.317 250.531 235.827 250.531 240.157C250.531 244.487 254.043 247.998 258.375 247.998Z" fill="#EA5E76"/>
<path d="M181 226.332C176.603 230.605 170.676 233 164.5 233C158.324 233 152.397 230.605 148 226.332C149.47 223.244 151.802 220.632 154.724 218.802C157.646 216.972 161.037 216 164.5 216C167.963 216 171.354 216.972 174.276 218.802C177.198 220.632 179.53 223.244 181 226.332V226.332Z" fill="#2F313E"/>
<path d="M252 226.332C247.603 230.605 241.676 233 235.5 233C229.324 233 223.397 230.605 219 226.332C220.47 223.244 222.802 220.632 225.724 218.802C228.646 216.972 232.037 216 235.5 216C238.963 216 242.354 216.972 245.276 218.802C248.198 220.632 250.53 223.244 252 226.332V226.332Z" fill="#2F313E"/>
</g>
<defs>
<clipPath id="clip0_141_77">
<rect width="398" height="398" rx="8" fill="white"/>
</clipPath>
</defs>
</svg>
